<svg width="21" height="21" viewBox="0 0 21 21" fill="none" xmlns="http://www.w3.org/2000/svg">
<mask id="mask0_13_4202" style="mask-type:alpha" maskUnits="userSpaceOnUse" x="0" y="0" width="21" height="21">
<rect x="0.5" y="0.517334" width="20" height="20" fill="#D9D9D9"/>
</mask>
<g mask="url(#mask0_13_4202)">
<path d="M6.33342 8.01742C5.87508 8.01742 5.48272 7.85422 5.15633 7.52783C4.82994 7.20144 4.66675 6.80908 4.66675 6.35075C4.66675 5.89242 4.82994 5.50005 5.15633 5.17367C5.48272 4.84728 5.87508 4.68408 6.33342 4.68408C6.79175 4.68408 7.18411 4.84728 7.5105 5.17367C7.83689 5.50005 8.00008 5.89242 8.00008 6.35075C8.00008 6.80908 7.83689 7.20144 7.5105 7.52783C7.18411 7.85422 6.79175 8.01742 6.33342 8.01742ZM4.66675 18.8507C4.43064 18.8507 4.23272 18.7709 4.073 18.6112C3.91328 18.4514 3.83341 18.2535 3.83341 18.0174C3.37508 18.0174 2.98272 17.8542 2.65633 17.5278C2.32994 17.2014 2.16675 16.8091 2.16675 16.3507V11.3507H4.66675V10.7257C4.66675 10.198 4.8473 9.75353 5.20842 9.39242C5.56953 9.0313 6.01397 8.85075 6.54175 8.85075C6.81953 8.85075 7.07647 8.9063 7.31258 9.01742C7.54869 9.12853 7.76397 9.2813 7.95842 9.47575L9.12508 10.7674C9.23619 10.8785 9.34383 10.9827 9.448 11.0799C9.55217 11.1771 9.66675 11.2674 9.79175 11.3507H15.5001V4.55908C15.5001 4.36464 15.4306 4.19797 15.2917 4.05908C15.1529 3.92019 14.9862 3.85075 14.7917 3.85075C14.7084 3.85075 14.6286 3.86811 14.5522 3.90283C14.4758 3.93755 14.4029 3.98964 14.3334 4.05908L13.2917 5.10075C13.3612 5.33686 13.3751 5.5695 13.3334 5.79867C13.2917 6.02783 13.2084 6.23964 13.0834 6.43408L10.7917 4.10075C10.9862 3.97575 11.1945 3.89589 11.4167 3.86117C11.639 3.82644 11.8612 3.85075 12.0834 3.93408L13.1251 2.89242C13.3473 2.67019 13.6008 2.49658 13.8855 2.37158C14.1702 2.24658 14.4723 2.18408 14.7917 2.18408C15.4584 2.18408 16.0209 2.41325 16.4792 2.87158C16.9376 3.32992 17.1667 3.89242 17.1667 4.55908V11.3507H18.8334V16.3507C18.8334 16.8091 18.6702 17.2014 18.3438 17.5278C18.0174 17.8542 17.6251 18.0174 17.1667 18.0174C17.1667 18.2535 17.0869 18.4514 16.9272 18.6112C16.7674 18.7709 16.5695 18.8507 16.3334 18.8507H4.66675ZM3.83341 16.3507H17.1667V13.0174H3.83341V16.3507Z" fill="#1F2328"/>
</g>
</svg>
