<svg width="20" height="21" viewBox="0 0 20 21" fill="none" xmlns="http://www.w3.org/2000/svg">
<mask id="mask0_13_4196" style="mask-type:alpha" maskUnits="userSpaceOnUse" x="0" y="0" width="20" height="21">
<rect y="0.517334" width="20" height="20" fill="#D9D9D9"/>
</mask>
<g mask="url(#mask0_13_4196)">
<path d="M1.66528 16.3503V11.3503C1.66528 10.9753 1.74167 10.635 1.89445 10.3294C2.04723 10.0239 2.24862 9.75304 2.49862 9.51693V7.18359C2.49862 6.48915 2.74167 5.89887 3.22778 5.41276C3.71389 4.92665 4.30417 4.68359 4.99862 4.68359H8.33195C8.65139 4.68359 8.95 4.74262 9.22778 4.86068C9.50556 4.97873 9.7625 5.14193 9.99862 5.35026C10.2347 5.14193 10.4917 4.97873 10.7694 4.86068C11.0472 4.74262 11.3458 4.68359 11.6653 4.68359H14.9986C15.6931 4.68359 16.2833 4.92665 16.7694 5.41276C17.2556 5.89887 17.4986 6.48915 17.4986 7.18359V9.51693C17.7486 9.75304 17.95 10.0239 18.1028 10.3294C18.2556 10.635 18.3319 10.9753 18.3319 11.3503V16.3503H16.6653V14.6836H3.33195V16.3503H1.66528ZM10.8319 8.85026H15.8319V7.18359C15.8319 6.94748 15.7521 6.74957 15.5924 6.58984C15.4326 6.43012 15.2347 6.35026 14.9986 6.35026H11.6653C11.4292 6.35026 11.2313 6.43012 11.0715 6.58984C10.9118 6.74957 10.8319 6.94748 10.8319 7.18359V8.85026ZM4.16528 8.85026H9.16528V7.18359C9.16528 6.94748 9.08542 6.74957 8.9257 6.58984C8.76598 6.43012 8.56806 6.35026 8.33195 6.35026H4.99862C4.7625 6.35026 4.56459 6.43012 4.40487 6.58984C4.24514 6.74957 4.16528 6.94748 4.16528 7.18359V8.85026ZM3.33195 13.0169H16.6653V11.3503C16.6653 11.1142 16.5854 10.9162 16.4257 10.7565C16.266 10.5968 16.0681 10.5169 15.8319 10.5169H4.16528C3.92917 10.5169 3.73126 10.5968 3.57153 10.7565C3.41181 10.9162 3.33195 11.1142 3.33195 11.3503V13.0169Z" fill="#1F2328"/>
</g>
</svg>
