<svg width="304" height="48" viewBox="0 0 304 48" fill="none" xmlns="http://www.w3.org/2000/svg">
<rect width="48" height="48" rx="10" fill="white" fill-opacity="0.2"/>
<path fill-rule="evenodd" clip-rule="evenodd" d="M27.4893 34.0694C28.888 32.0721 30.3427 29.1347 30.6333 25.3334H34.5733C34.0627 29.4027 31.2547 32.7601 27.4893 34.0694ZM13.4255 25.3334H17.4149C17.6895 29.1494 19.1255 32.0747 20.5429 34.0814C16.7602 32.7787 13.9389 29.4147 13.4255 25.3334ZM20.5842 13.9054C19.1815 15.9027 17.7135 18.8494 17.4202 22.6667H13.4255C13.9402 18.5707 16.7815 15.196 20.5842 13.9054ZM20.1055 22.6667C20.5135 18.304 22.7456 15.2667 24.0349 13.8627C25.3682 15.2907 27.5655 18.3 27.9456 22.6667H20.1055ZM20.1069 25.3334H27.9495C27.5415 29.7027 25.3042 32.7401 24.0162 34.1441C22.6202 32.6641 20.4789 29.6961 20.1069 25.3334ZM34.5733 22.6668H30.6373C30.364 18.8682 28.944 15.9522 27.5333 13.9482C31.2773 15.2682 34.0653 18.6135 34.5733 22.6668ZM37.3334 24.0001C37.3334 16.6614 31.3721 10.6907 24.0374 10.6694C24.0321 10.6694 24.0267 10.6681 24.0201 10.6681C24.0147 10.6681 24.0067 10.6667 24.0001 10.6667C16.6481 10.6667 10.6667 16.6494 10.6667 24.0001C10.6667 31.3521 16.6481 37.3334 24.0001 37.3334C24.0081 37.3334 24.0147 37.3321 24.0201 37.3321C24.0227 37.3321 24.0241 37.3334 24.0267 37.3334C24.0307 37.3334 24.0347 37.3307 24.0374 37.3307C31.3721 37.3107 37.3334 31.3387 37.3334 24.0001Z" fill="#03133D"/>
<mask id="mask0_13_3973" style="mask-type:luminance" maskUnits="userSpaceOnUse" x="10" y="10" width="28" height="28">
<path fill-rule="evenodd" clip-rule="evenodd" d="M27.4893 34.0694C28.888 32.0721 30.3427 29.1347 30.6333 25.3334H34.5733C34.0627 29.4027 31.2547 32.7601 27.4893 34.0694ZM13.4255 25.3334H17.4149C17.6895 29.1494 19.1255 32.0747 20.5429 34.0814C16.7602 32.7787 13.9389 29.4147 13.4255 25.3334ZM20.5842 13.9054C19.1815 15.9027 17.7135 18.8494 17.4202 22.6667H13.4255C13.9402 18.5707 16.7815 15.196 20.5842 13.9054ZM20.1055 22.6667C20.5135 18.304 22.7456 15.2667 24.0349 13.8627C25.3682 15.2907 27.5655 18.3 27.9456 22.6667H20.1055ZM20.1069 25.3334H27.9495C27.5415 29.7027 25.3042 32.7401 24.0162 34.1441C22.6202 32.6641 20.4789 29.6961 20.1069 25.3334ZM34.5733 22.6668H30.6373C30.364 18.8682 28.944 15.9522 27.5333 13.9482C31.2773 15.2682 34.0653 18.6135 34.5733 22.6668ZM37.3334 24.0001C37.3334 16.6614 31.3721 10.6907 24.0374 10.6694C24.0321 10.6694 24.0267 10.6681 24.0201 10.6681C24.0147 10.6681 24.0067 10.6667 24.0001 10.6667C16.6481 10.6667 10.6667 16.6494 10.6667 24.0001C10.6667 31.3521 16.6481 37.3334 24.0001 37.3334C24.0081 37.3334 24.0147 37.3321 24.0201 37.3321C24.0227 37.3321 24.0241 37.3334 24.0267 37.3334C24.0307 37.3334 24.0347 37.3307 24.0374 37.3307C31.3721 37.3107 37.3334 31.3387 37.3334 24.0001Z" fill="white"/>
</mask>
<g mask="url(#mask0_13_3973)">
<rect x="8" y="8" width="32" height="32" fill="white"/>
</g>
<rect x="64" width="48" height="48" rx="10" fill="white" fill-opacity="0.2"/>
<path fill-rule="evenodd" clip-rule="evenodd" d="M94.6667 12.6667C94.6667 12.2987 94.3667 12 94 12H90.6667C86.984 12 84 14.6867 84 18V21.6H80.6667C80.2987 21.6 80 21.8987 80 22.2667V25.7333C80 26.1013 80.2987 26.4 80.6667 26.4H84V35.3333C84 35.7013 84.2987 36 84.6667 36H88.6667C89.0333 36 89.3333 35.7013 89.3333 35.3333V26.4H92.8253C93.1253 26.4 93.388 26.2 93.4693 25.912L94.4307 22.4453C94.5493 22.0213 94.2293 21.6 93.7893 21.6H89.3333V18C89.3333 17.3373 89.9293 16.8 90.6667 16.8H94C94.3667 16.8 94.6667 16.5013 94.6667 16.1333V12.6667Z" fill="#03133D"/>
<mask id="mask1_13_3973" style="mask-type:luminance" maskUnits="userSpaceOnUse" x="80" y="12" width="15" height="24">
<path fill-rule="evenodd" clip-rule="evenodd" d="M94.6667 12.6667C94.6667 12.2987 94.3667 12 94 12H90.6667C86.984 12 84 14.6867 84 18V21.6H80.6667C80.2987 21.6 80 21.8987 80 22.2667V25.7333C80 26.1013 80.2987 26.4 80.6667 26.4H84V35.3333C84 35.7013 84.2987 36 84.6667 36H88.6667C89.0333 36 89.3333 35.7013 89.3333 35.3333V26.4H92.8253C93.1253 26.4 93.388 26.2 93.4693 25.912L94.4307 22.4453C94.5493 22.0213 94.2293 21.6 93.7893 21.6H89.3333V18C89.3333 17.3373 89.9293 16.8 90.6667 16.8H94C94.3667 16.8 94.6667 16.5013 94.6667 16.1333V12.6667Z" fill="white"/>
</mask>
<g mask="url(#mask1_13_3973)">
<rect x="72" y="8" width="32" height="32" fill="white"/>
</g>
<rect x="128" width="48" height="48" rx="10" fill="white" fill-opacity="0.2"/>
<path fill-rule="evenodd" clip-rule="evenodd" d="M146.769 34.667C156.431 34.667 162.02 27.1656 162.02 20.047C162.02 19.851 163.393 18.6723 163.981 16.215C164.101 15.7163 163.616 15.323 163.159 15.5323C161.985 16.071 160.795 15.6443 160.277 15.031C158.288 12.8616 154.961 12.7576 152.845 14.7976C151.481 16.1136 150.903 18.0736 151.325 19.9443C146.857 20.263 143.789 18.1456 141.267 15.243C140.941 14.8656 140.337 15.0643 140.269 15.563C139.896 18.339 139.779 25.0883 146.467 28.9643C145.305 30.6336 143.032 31.619 140.501 32.0416C139.941 32.1363 139.808 32.9123 140.32 33.163C142.325 34.1496 144.529 34.6656 146.769 34.663" fill="#03133D"/>
<mask id="mask2_13_3973" style="mask-type:luminance" maskUnits="userSpaceOnUse" x="140" y="13" width="24" height="22">
<path fill-rule="evenodd" clip-rule="evenodd" d="M146.769 34.667C156.431 34.667 162.02 27.1656 162.02 20.047C162.02 19.851 163.393 18.6723 163.981 16.215C164.101 15.7163 163.616 15.323 163.159 15.5323C161.985 16.071 160.795 15.6443 160.277 15.031C158.288 12.8616 154.961 12.7576 152.845 14.7976C151.481 16.1136 150.903 18.0736 151.325 19.9443C146.857 20.263 143.789 18.1456 141.267 15.243C140.941 14.8656 140.337 15.0643 140.269 15.563C139.896 18.339 139.779 25.0883 146.467 28.9643C145.305 30.6336 143.032 31.619 140.501 32.0416C139.941 32.1363 139.808 32.9123 140.32 33.163C142.325 34.1496 144.529 34.6656 146.769 34.663" fill="white"/>
</mask>
<g mask="url(#mask2_13_3973)">
<rect x="136" y="8" width="32" height="32" fill="white"/>
</g>
<rect x="192" width="48" height="48" rx="10" fill="white" fill-opacity="0.2"/>
<path fill-rule="evenodd" clip-rule="evenodd" d="M223.327 26.6406C222.439 29.4966 220.226 31.4739 217.28 31.9099C212.786 32.5752 208.372 29.1672 208.023 24.6339C207.66 19.9299 211.371 16.0006 216.002 16.0006C217.072 16.0006 218.094 16.2112 219.027 16.5926C219.351 16.7246 219.718 16.6112 219.883 16.3046L221.796 12.7752C221.978 12.4379 221.847 12.0032 221.498 11.8459C219.822 11.0886 217.963 10.6672 216.006 10.6672C208.51 10.6672 202.458 16.8486 202.672 24.3912C202.868 31.2726 208.548 37.0299 215.424 37.3219C222.819 37.6339 228.952 31.9272 229.324 24.6966C229.339 24.4326 229.334 22.8952 229.328 21.9939C229.327 21.6259 229.028 21.3339 228.662 21.3339H216.663C216.295 21.3339 215.996 21.6312 215.996 22.0006V25.9739C215.996 26.3406 216.295 26.6406 216.663 26.6406H223.327Z" fill="#03133D"/>
<mask id="mask3_13_3973" style="mask-type:luminance" maskUnits="userSpaceOnUse" x="202" y="10" width="28" height="28">
<path fill-rule="evenodd" clip-rule="evenodd" d="M223.327 26.6406C222.439 29.4966 220.226 31.4739 217.28 31.9099C212.786 32.5752 208.372 29.1672 208.023 24.6339C207.66 19.9299 211.371 16.0006 216.002 16.0006C217.072 16.0006 218.094 16.2112 219.027 16.5926C219.351 16.7246 219.718 16.6112 219.883 16.3046L221.796 12.7752C221.978 12.4379 221.847 12.0032 221.498 11.8459C219.822 11.0886 217.963 10.6672 216.006 10.6672C208.51 10.6672 202.458 16.8486 202.672 24.3912C202.868 31.2726 208.548 37.0299 215.424 37.3219C222.819 37.6339 228.952 31.9272 229.324 24.6966C229.339 24.4326 229.334 22.8952 229.328 21.9939C229.327 21.6259 229.028 21.3339 228.662 21.3339H216.663C216.295 21.3339 215.996 21.6312 215.996 22.0006V25.9739C215.996 26.3406 216.295 26.6406 216.663 26.6406H223.327Z" fill="white"/>
</mask>
<g mask="url(#mask3_13_3973)">
<rect x="200" y="8" width="32" height="32" fill="white"/>
</g>
<rect x="256" width="48" height="48" rx="10" fill="white" fill-opacity="0.2"/>
<path fill-rule="evenodd" clip-rule="evenodd" d="M268 15C268 13.344 269.344 12 271 12C272.656 12 274 13.344 274 15C274 16.656 272.656 18 271 18C269.344 18 268 16.656 268 15ZM284.2 19.2005C279.892 19.2005 276.399 22.6725 276.399 26.9525V34.7992C276.399 35.4619 276.938 36.0005 277.6 36.0005H280.399C281.062 36.0005 281.6 35.4619 281.6 34.7992V26.9525C281.6 25.4379 282.912 24.2272 284.47 24.3832C285.822 24.5179 286.799 25.7539 286.799 27.1125V34.7992C286.799 35.4619 287.338 36.0005 288 36.0005H290.799C291.462 36.0005 292 35.4619 292 34.7992V26.9525C292 22.6725 288.507 19.2005 284.2 19.2005ZM272.799 20.3997H269.201C268.538 20.3997 267.999 20.9371 267.999 21.5997V34.7997C267.999 35.4624 268.538 35.9997 269.201 35.9997H272.799C273.462 35.9997 273.999 35.4624 273.999 34.7997V21.5997C273.999 20.9371 273.462 20.3997 272.799 20.3997Z" fill="#03133D"/>
<mask id="mask4_13_3973" style="mask-type:luminance" maskUnits="userSpaceOnUse" x="267" y="12" width="26" height="25">
<path fill-rule="evenodd" clip-rule="evenodd" d="M268 15C268 13.344 269.344 12 271 12C272.656 12 274 13.344 274 15C274 16.656 272.656 18 271 18C269.344 18 268 16.656 268 15ZM284.2 19.2005C279.892 19.2005 276.399 22.6725 276.399 26.9525V34.7992C276.399 35.4619 276.938 36.0005 277.6 36.0005H280.399C281.062 36.0005 281.6 35.4619 281.6 34.7992V26.9525C281.6 25.4379 282.912 24.2272 284.47 24.3832C285.822 24.5179 286.799 25.7539 286.799 27.1125V34.7992C286.799 35.4619 287.338 36.0005 288 36.0005H290.799C291.462 36.0005 292 35.4619 292 34.7992V26.9525C292 22.6725 288.507 19.2005 284.2 19.2005ZM272.799 20.3997H269.201C268.538 20.3997 267.999 20.9371 267.999 21.5997V34.7997C267.999 35.4624 268.538 35.9997 269.201 35.9997H272.799C273.462 35.9997 273.999 35.4624 273.999 34.7997V21.5997C273.999 20.9371 273.462 20.3997 272.799 20.3997Z" fill="white"/>
</mask>
<g mask="url(#mask4_13_3973)">
<rect x="264" y="8" width="32" height="32" fill="white"/>
</g>
</svg>
