<svg width="34" height="42" viewBox="0 0 34 42" fill="none" xmlns="http://www.w3.org/2000/svg">
<path d="M15.4284 34.962H18.5714V32.962H21.4999C21.9519 32.962 22.3269 32.8141 22.6249 32.5185C22.9226 32.2228 23.0714 31.8516 23.0714 31.405V24.8305C23.0714 24.3851 22.9226 24.0118 22.6249 23.7105C22.3269 23.4091 21.9509 23.2585 21.4969 23.2585H14.0714V19.8305H23.0714V16.699H18.5714V14.699H15.4284V16.699H12.4999C12.0479 16.699 11.6729 16.8485 11.3749 17.1475C11.0773 17.4465 10.9284 17.8168 10.9284 18.2585V24.8335C10.9284 25.2835 11.0773 25.6575 11.3749 25.9555C11.6729 26.2531 12.0489 26.402 12.5029 26.402H19.9284V29.8305H10.9284V32.962H15.4284V34.962ZM4.10743 41.299C3.18743 41.299 2.38976 40.9611 1.71443 40.2855C1.03876 39.6101 0.700928 38.8125 0.700928 37.8925V4.10746C0.700928 3.18413 1.03876 2.38363 1.71443 1.70596C2.38976 1.02796 3.18743 0.688965 4.10743 0.688965H22.1814L33.3109 11.8185V37.8925C33.3109 38.8125 32.9719 39.6101 32.2939 40.2855C31.6163 40.9611 30.8158 41.299 29.8924 41.299H4.10743ZM19.6214 11.8185V4.10746H4.10743V37.8925H29.8924V11.8185H19.6214Z" fill="#F4511E"/>
</svg>
