<svg width="40" height="38" viewBox="0 0 40 38" fill="none" xmlns="http://www.w3.org/2000/svg">
<path d="M4.10743 37.299C3.16243 37.299 2.35843 36.9675 1.69543 36.3045C1.03243 35.6415 0.700928 34.8375 0.700928 33.8925V4.10746C0.700928 3.15913 1.03243 2.3523 1.69543 1.68696C2.35843 1.02163 3.16243 0.688965 4.10743 0.688965H33.8924C34.8408 0.688965 35.6476 1.02163 36.3129 1.68696C36.9783 2.3523 37.3109 3.15913 37.3109 4.10746V10.7H33.8924V4.10746H4.10743V33.8925H33.8924V27.35H37.3109V33.8925C37.3109 34.8375 36.9783 35.6415 36.3129 36.3045C35.6476 36.9675 34.8408 37.299 33.8924 37.299H4.10743ZM21.9239 28.35C20.8999 28.35 20.0233 27.9943 19.2939 27.283C18.5646 26.5716 18.1999 25.7096 18.1999 24.697V13.362C18.1999 12.3596 18.5646 11.4986 19.2939 10.779C20.0233 10.0596 20.8999 9.69996 21.9239 9.69996H35.6984C36.7161 9.69996 37.5893 10.0596 38.3179 10.779C39.0466 11.4986 39.4109 12.3596 39.4109 13.362V24.703C39.4109 25.706 39.0466 26.5645 38.3179 27.2785C37.5893 27.9928 36.7161 28.35 35.6984 28.35H21.9239ZM36.4109 25.35V12.7H21.1999V25.35H36.4109ZM27.6119 22.2C28.5039 22.2 29.2583 21.884 29.8749 21.252C30.4916 20.62 30.7999 19.8526 30.7999 18.95C30.7999 18.075 30.4833 17.3311 29.8499 16.7185C29.2166 16.1061 28.4666 15.8 27.5999 15.8C26.7333 15.8 25.9833 16.1061 25.3499 16.7185C24.7166 17.3311 24.3999 18.075 24.3999 18.95C24.3999 19.8526 24.7123 20.62 25.3369 21.252C25.9613 21.884 26.7196 22.2 27.6119 22.2Z" fill="#F4511E"/>
</svg>
