<svg width="48" height="48" viewBox="0 0 48 48" fill="none" xmlns="http://www.w3.org/2000/svg">
<mask id="mask0_13_1353" style="mask-type:alpha" maskUnits="userSpaceOnUse" x="0" y="0" width="48" height="48">
<rect width="48" height="48" fill="#D9D9D9"/>
</mask>
<g mask="url(#mask0_13_1353)">
<path d="M17.0024 24.0835C18.4168 24.0835 19.6016 23.571 20.5569 22.546C21.5123 21.5206 22.1791 20.2966 22.5574 18.874L19.4899 18.126C19.3216 18.8416 19.0346 19.4836 18.6289 20.052C18.2229 20.6203 17.6789 20.9045 16.9969 20.9045C16.3149 20.9045 15.7719 20.6203 15.3679 20.052C14.9639 19.4836 14.6779 18.8416 14.5099 18.126L11.4424 18.874C11.8208 20.2966 12.4884 21.5206 13.4454 22.546C14.4024 23.571 15.5881 24.0835 17.0024 24.0835ZM23.9954 35.0835C25.3144 35.0835 26.5839 34.784 27.8039 34.185C29.0236 33.5856 30.1661 32.6866 31.2314 31.488L28.8879 29.3685C28.1466 30.1845 27.3613 30.8028 26.5319 31.2235C25.7026 31.6441 24.8586 31.8545 23.9999 31.8545C23.1413 31.8545 22.2973 31.6441 21.4679 31.2235C20.6386 30.8028 19.8533 30.1845 19.1119 29.3685L16.7804 31.488C17.8711 32.6866 19.0166 33.5856 20.2169 34.185C21.4173 34.784 22.6768 35.0835 23.9954 35.0835ZM31.0024 24.0835C32.4168 24.0835 33.6016 23.571 34.5569 22.546C35.5123 21.5206 36.1791 20.2966 36.5574 18.874L33.4899 18.126C33.3216 18.8416 33.0346 19.4836 32.6289 20.052C32.2229 20.6203 31.6789 20.9045 30.9969 20.9045C30.3149 20.9045 29.7719 20.6203 29.3679 20.052C28.9639 19.4836 28.6779 18.8416 28.5099 18.126L25.4424 18.874C25.8208 20.2966 26.4884 21.5206 27.4454 22.546C28.4024 23.571 29.5881 24.0835 31.0024 24.0835ZM24.0004 44.299C21.1934 44.299 18.5554 43.768 16.0864 42.706C13.6171 41.644 11.4666 40.197 9.63493 38.365C7.80293 36.5333 6.35593 34.383 5.29393 31.914C4.23193 29.4453 3.70093 26.8075 3.70093 24.0005C3.70093 21.1935 4.23193 18.5555 5.29393 16.0865C6.35593 13.6171 7.80226 11.4663 9.63293 9.63396C11.4636 7.80163 13.6136 6.3528 16.0829 5.28746C18.5523 4.2218 21.1908 3.68896 23.9984 3.68896C26.8061 3.68896 29.4449 4.22146 31.9149 5.28646C34.3849 6.35146 36.5359 7.79946 38.3679 9.63046C40.1996 11.4618 41.6479 13.6126 42.7129 16.083C43.7783 18.553 44.3109 21.1923 44.3109 24.001C44.3109 26.809 43.7781 29.4475 42.7124 31.9165C41.6471 34.3858 40.1983 36.5358 38.3659 38.3665C36.5336 40.1975 34.3829 41.644 31.9139 42.706C29.4453 43.768 26.8074 44.299 24.0004 44.299ZM23.9999 40.8925C28.7139 40.8925 32.7078 39.2555 35.9814 35.9815C39.2554 32.7078 40.8924 28.714 40.8924 24C40.8924 19.286 39.2554 15.2921 35.9814 12.0185C32.7078 8.74446 28.7139 7.10746 23.9999 7.10746C19.2859 7.10746 15.2921 8.74446 12.0184 12.0185C8.74443 15.2921 7.10743 19.286 7.10743 24C7.10743 28.714 8.74443 32.7078 12.0184 35.9815C15.2921 39.2555 19.2859 40.8925 23.9999 40.8925Z" fill="#F4511E"/>
</g>
</svg>
