<svg width="42" height="34" viewBox="0 0 42 34" fill="none" xmlns="http://www.w3.org/2000/svg">
<path d="M21.1409 22.6C22.6803 22.6 23.9916 22.0613 25.0749 20.984C26.1583 19.9063 26.6999 18.598 26.6999 17.059C26.6999 15.5196 26.1613 14.2083 25.0839 13.125C24.0063 12.0416 22.6979 11.5 21.1589 11.5C19.6196 11.5 18.3083 12.0386 17.2249 13.116C16.1416 14.1936 15.5999 15.502 15.5999 17.041C15.5999 18.5803 16.1386 19.8916 17.2159 20.975C18.2936 22.0583 19.6019 22.6 21.1409 22.6ZM30.6424 26.5425C31.8931 25.2918 32.8601 23.8416 33.5434 22.192C34.2268 20.5423 34.5684 18.827 34.5684 17.046C34.5684 15.2646 34.2268 13.5486 33.5434 11.898C32.8601 10.247 31.8931 8.79613 30.6424 7.54546L28.4924 9.69546C29.4431 10.7095 30.1934 11.8451 30.7434 13.1025C31.2934 14.3601 31.5684 15.678 31.5684 17.056C31.5684 18.434 31.2934 19.7488 30.7434 21.0005C30.1934 22.2525 29.4431 23.3871 28.4924 24.4045L30.6424 26.5425ZM11.6574 26.5425L13.8074 24.4045C12.8568 23.3905 12.1064 22.2548 11.5564 20.9975C11.0064 19.7398 10.7314 18.422 10.7314 17.044C10.7314 15.666 11.0064 14.3511 11.5564 13.0995C12.1064 11.8475 12.8568 10.7128 13.8074 9.69546L11.6574 7.54546C10.3988 8.7928 9.42976 10.2421 8.75043 11.8935C8.07109 13.5451 7.73143 15.2626 7.73143 17.046C7.73143 18.8293 8.07109 20.5451 8.75043 22.1935C9.42976 23.8421 10.3988 25.2918 11.6574 26.5425ZM4.10743 33.299C3.16243 33.299 2.35843 32.9675 1.69543 32.3045C1.03243 31.6415 0.700928 30.8375 0.700928 29.8925V4.10746C0.700928 3.15913 1.03243 2.3523 1.69543 1.68696C2.35843 1.02163 3.16243 0.688965 4.10743 0.688965H37.8924C38.8408 0.688965 39.6476 1.02163 40.3129 1.68696C40.9783 2.3523 41.3109 3.15913 41.3109 4.10746V29.8925C41.3109 30.8375 40.9783 31.6415 40.3129 32.3045C39.6476 32.9675 38.8408 33.299 37.8924 33.299H4.10743ZM4.10743 29.8925H37.8924V4.10746H4.10743V29.8925Z" fill="#F4511E"/>
</svg>
