<svg width="34" height="42" viewBox="0 0 34 42" fill="none" xmlns="http://www.w3.org/2000/svg">
<path d="M11.6044 27.4935L16.9999 23.5215L22.2574 27.4935L20.0714 21.062L25.4674 17.19H18.9479L16.9999 10.8325L15.0519 17.19H8.54443L13.8284 21.062L11.6044 27.4935ZM16.9989 41.261C12.2459 40.072 8.34143 37.3242 5.28543 33.0175C2.22909 28.7109 0.700928 23.9897 0.700928 18.854V6.74104L16.9999 0.639038L33.3109 6.74154V18.85C33.3109 23.9867 31.7806 28.7087 28.7199 33.016C25.6593 37.3237 21.7523 40.072 16.9989 41.261ZM16.9999 37.7545C20.7933 36.4479 23.8904 34.0542 26.2914 30.5735C28.6921 27.0925 29.8924 23.1859 29.8924 18.8535V9.13354L16.9999 4.26954L4.10743 9.13954V18.848C4.10743 23.184 5.30776 27.0925 7.70843 30.5735C10.1094 34.0542 13.2066 36.4479 16.9999 37.7545Z" fill="#F4511E"/>
</svg>
