<svg width="45" height="37" viewBox="0 0 45 37" fill="none" xmlns="http://www.w3.org/2000/svg">
<path d="M4.10743 33.299C3.18743 33.299 2.38976 32.9611 1.71443 32.2855C1.03876 31.6101 0.700928 30.8125 0.700928 29.8925V4.10746C0.700928 3.18413 1.03876 2.38363 1.71443 1.70596C2.38976 1.02796 3.18743 0.688965 4.10743 0.688965H37.8924C38.8158 0.688965 39.6163 1.02796 40.2939 1.70596C40.9719 2.38363 41.3109 3.18413 41.3109 4.10746V15.926H4.10743V29.8925H23.9259V33.299H4.10743ZM4.10743 8.97596H37.8924V4.10746H4.10743V8.97596ZM35.9519 36.9165V31.048H30.0834V27.952H35.9519V22.0835H39.0479V27.952H44.9164V31.048H39.0479V36.9165H35.9519Z" fill="#F4511E"/>
</svg>
