<svg width="38" height="38" viewBox="0 0 38 38" fill="none" xmlns="http://www.w3.org/2000/svg">
<path d="M0.593506 37.4065V8.83154H8.84351V0.581543H29.1685V17.0815H37.4185V37.4065H21.65V28.75H16.35V37.4065H0.593506ZM4.00001 34H9.25001V28.75H4.00001V34ZM4.00001 25.75H9.25001V20.5H4.00001V25.75ZM4.00001 17.5H9.25001V12.25H4.00001V17.5ZM12.25 25.75H17.5V20.5H12.25V25.75ZM12.25 17.5H17.5V12.25H12.25V17.5ZM12.25 9.25004H17.5V4.00004H12.25V9.25004ZM20.5 25.75H25.75V20.5H20.5V25.75ZM20.5 17.5H25.75V12.25H20.5V17.5ZM20.5 9.25004H25.75V4.00004H20.5V9.25004ZM28.75 34H34V28.75H28.75V34ZM28.75 25.75H34V20.5H28.75V25.75Z" fill="#F4511E"/>
</svg>
