<svg width="20" height="21" viewBox="0 0 20 21" fill="none" xmlns="http://www.w3.org/2000/svg">
<mask id="mask0_13_4210" style="mask-type:alpha" maskUnits="userSpaceOnUse" x="0" y="0" width="20" height="21">
<rect y="0.517334" width="20" height="20" fill="#D9D9D9"/>
</mask>
<g mask="url(#mask0_13_4210)">
<path d="M5.83333 14.684V6.35067H14.1667V14.684H5.83333ZM7.5 13.0173H12.5V8.01733H7.5V13.0173ZM4.16667 16.3507V18.0173C3.70833 18.0173 3.31597 17.8541 2.98958 17.5278C2.66319 17.2014 2.5 16.809 2.5 16.3507H4.16667ZM2.5 14.684V13.0173H4.16667V14.684H2.5ZM2.5 11.3507V9.684H4.16667V11.3507H2.5ZM2.5 8.01733V6.35067H4.16667V8.01733H2.5ZM4.16667 4.684H2.5C2.5 4.22567 2.66319 3.83331 2.98958 3.50692C3.31597 3.18053 3.70833 3.01733 4.16667 3.01733V4.684ZM5.83333 18.0173V16.3507H7.5V18.0173H5.83333ZM5.83333 4.684V3.01733H7.5V4.684H5.83333ZM9.16667 18.0173V16.3507H10.8333V18.0173H9.16667ZM9.16667 4.684V3.01733H10.8333V4.684H9.16667ZM12.5 18.0173V16.3507H14.1667V18.0173H12.5ZM12.5 4.684V3.01733H14.1667V4.684H12.5ZM15.8333 18.0173V16.3507H17.5C17.5 16.809 17.3368 17.2014 17.0104 17.5278C16.684 17.8541 16.2917 18.0173 15.8333 18.0173ZM15.8333 14.684V13.0173H17.5V14.684H15.8333ZM15.8333 11.3507V9.684H17.5V11.3507H15.8333ZM15.8333 8.01733V6.35067H17.5V8.01733H15.8333ZM15.8333 4.684V3.01733C16.2917 3.01733 16.684 3.18053 17.0104 3.50692C17.3368 3.83331 17.5 4.22567 17.5 4.684H15.8333Z" fill="#1F2328"/>
</g>
</svg>
